#tb 0: 1/44100
#media_type 0: audio
#codec_id 0: pcm_s16le
#sample_rate 0: 44100
#channel_layout_name 0: stereo
0,          0,          0,     4096,    16384, 0x787629da
0,       4096,       4096,     4096,    16384, 0x9121d441
0,       8192,       8192,     4096,    16384, 0x9e93dbf1
0,      12288,      12288,     4096,    16384, 0xae86efbf
0,      16384,      16384,     4096,    16384, 0x84ace6c3
0,      20480,      20480,     4096,    16384, 0x1daaf3fd
0,      24576,      24576,     4096,    16384, 0x02a3d8ab
0,      28672,      28672,     4096,    16384, 0x0c50d895
0,      32768,      32768,     4096,    16384, 0xf398df71
0,      36864,      36864,     4096,    16384, 0x9121d441
0,      40960,      40960,     4096,    16384, 0xb238f7eb
0,      45056,      45056,     4096,    16384, 0x33fedab5
0,      49152,      49152,     4096,    16384, 0xb41bf24f
0,      53248,      53248,     4096,    16384, 0xd996d181
0,      57344,      57344,     4096,    16384, 0xef11f439
0,      61440,      61440,     4096,    16384, 0x8b5cc9b7
0,      65536,      65536,     4096,    16384, 0xccecbf4d
0,      69632,      69632,     4096,    16384, 0xe754ec1b
0,      73728,      73728,     4096,    16384, 0x7a9eea35
0,      77824,      77824,     4096,    16384, 0xf9bdde45
0,      81920,      81920,     4096,    16384, 0xed764630
0,      86016,      86016,     4096,    16384, 0x7c8fd52d
0,      90112,      90112,     4096,    16384, 0xb578f7c1
0,      94208,      94208,     4096,    16384, 0x4aabce65
0,      98304,      98304,     4096,    16384, 0x2d51e12d
0,     102400,     102400,     4096,    16384, 0xf6f11922
0,     106496,     106496,     4096,    16384, 0x6fe6bbc1
0,     110592,     110592,     4096,    16384, 0xa271ce9f
0,     114688,     114688,     4096,    16384, 0x9bb2f4c3
0,     118784,     118784,     4096,    16384, 0x1bc3ecf3
0,     122880,     122880,     4096,    16384, 0x61185472
0,     126976,     126976,     4096,    16384, 0xfb7a31e0
0,     131072,     131072,     4096,    16384, 0xaacecef6
0,     135168,     135168,     4096,    16384, 0x6e96e721
0,     139264,     139264,     4096,    16384, 0x79bfe08e
0,     143360,     143360,     4096,    16384, 0x2574e3d9
0,     147456,     147456,     4096,    16384, 0x2f27b215
0,     151552,     151552,     4096,    16384, 0xac64cc47
0,     155648,     155648,     4096,    16384, 0xe1ded3dc
0,     159744,     159744,     4096,    16384, 0xc7c2e9aa
0,     163840,     163840,     4096,    16384, 0x3f99e805
0,     167936,     167936,     4096,    16384, 0xf0f2ccba
0,     172032,     172032,     4096,    16384, 0x2747d598
0,     176128,     176128,     4096,    16384, 0x36b5cabd
0,     180224,     180224,     4096,    16384, 0x27edd491
0,     184320,     184320,     4096,    16384, 0xc9818e34
0,     188416,     188416,     4096,    16384, 0xa6d8d8b9
0,     192512,     192512,     4096,    16384, 0xe3fbb858
0,     196608,     196608,     4096,    16384, 0x9e4eeecd
0,     200704,     200704,     4096,    16384, 0x7b478458
0,     204800,     204800,     4096,    16384, 0x5606df83
0,     208896,     208896,     4096,    16384, 0x6681d0a4
0,     212992,     212992,     4096,    16384, 0x27edd491
0,     217088,     217088,     4096,    16384, 0xc9818e34
0,     221184,     221184,     4096,    16384, 0xa6d8d8b9
0,     225280,     225280,     4096,    16384, 0xe3fbb858
0,     229376,     229376,     4096,    16384, 0x9e4eeecd
0,     233472,     233472,     4096,    16384, 0x7b478458
0,     237568,     237568,     4096,    16384, 0x5606df83
0,     241664,     241664,     4096,    16384, 0x6681d0a4
0,     245760,     245760,     4096,    16384, 0x27edd491
0,     249856,     249856,     4096,    16384, 0xc9818e34
0,     253952,     253952,     4096,    16384, 0xa6d8d8b9
0,     258048,     258048,     4096,    16384, 0xe3fbb858
0,     262144,     262144,     2456,     9824, 0xbd4a1bb9
